<svg height="73" viewBox="0 0 73 73" width="73" xmlns="http://www.w3.org/2000/svg"><g fill="none" fill-rule="nonzero"><g><rect fill="#fff" height="71" rx="14" stroke="#172550" stroke-width="2" width="71" x="1" y="1"/><g transform="translate(12 17)"><path d="m19 31h8v4h-8z" fill="#445ea0"/><path d="m31 35h-18.5014378c-.2742532 0-.4985622.1925367-.4985622.4278407v2.1443186c0 .235304.2244068.4278407.4985622.4278407h18.5014378z" fill="#293d7c"/><path d="m45.478643 0h-44.95728596c-.28673615 0-.52135704.23680498-.52135704.52621038v29.94757922c0 .2895086.23462089.5262104.52135704.5262104h31.85714286v-15.7557824c0-.3980098.3208665-.7219664.7153076-.7219664h12.9061925v-13.99604082c0-.2894054-.2346209-.52621038-.521357-.52621038z" fill="#293d7c"/><path d="m2 24.6978912c0 .1662586.13927482.3021088.30960075.3021088h29.47316235v-10.3473264c0-.3809928.3175911-.6910987.7080057-.6910987h10.5092312v-8.9615749h-41z" fill="#fff"/><path d="m3.73271044 24.6978912v-19.6978912h-1.73271044v19.6978912c0 .1662586.12024101.3021088.26728956.3021088h1.73271044c-.14704855 0-.26728956-.135949-.26728956-.3021088z" fill="#d9eafc"/><circle cx="22.9" cy="27.9" fill="#445ea0" r="1.5"/><path d="m31.8 16h-5.6809868c-.1754573 0-.3190132.1439693-.3190132.3199317v6.3601366c0 .1759624.1435559.3199317.3190132.3199317h5.6809868z" fill="#c3ddf4"/><path d="m33.190583 13.4380791h4.809417v-5.98071223c0-.25155178-.2321247-.45736687-.5158326-.45736687h-28.96833478c-.28370794 0-.51583262.20581509-.51583262.45736687v6.08526623c0 .2515518.23212468.4573669.51583262.4573669h23.95867148c.0437426-.316132.3479807-.5619209.7160789-.5619209z" fill="#c3ddf4"/><path d="m42.6903992 2h-40.38079845c-.17032593 0-.30960075.16514092-.30960075.36721967v2.63278033h41v-2.63278033c0-.20207875-.139376-.36721967-.3096008-.36721967z" fill="#ffaf10"/><path d="m4 2h-1.73271044c-.14704855 0-.26728956.16514092-.26728956.36721967v2.63278033h1.73262312v-2.63278033c.00008732-.20207875.12032833-.36721967.26737688-.36721967z" fill="#ff9518"/><g fill="#5dc1d8" transform="translate(8 16)"><path d="m8.86265868 1.72081538h-8.06419161c-.39683833 0-.71856288-.36152307-.71856288-.8076923s.32172455-.80769231.71856288-.80769231h8.06419161c.39683833 0 .71856288.36152308.71856288.80769231s-.32172455.8076923-.71856288.8076923z"/><path d="m8.86265868 4.35787692h-8.06419161c-.39683833 0-.71856288-.36152307-.71856288-.8076923 0-.44616924.32172455-.80769231.71856288-.80769231h8.06419161c.39683833 0 .71856288.36152307.71856288.80769231 0 .44606153-.32172455.8076923-.71856288.8076923z"/><path d="m8.86265868 6.99493846h-8.06419161c-.39683833 0-.71856288-.36152308-.71856288-.80769231s.32172455-.8076923.71856288-.8076923h8.06419161c.39683833 0 .71856288.36152307.71856288.8076923s-.32172455.80769231-.71856288.80769231z"/><path d="m15.1913772 1.72081538h-4.150994c-.3968383 0-.7185628-.36152307-.7185628-.8076923s.3217245-.80769231.7185628-.80769231h4.150994c.3968384 0 .7185629.36152308.7185629.80769231s-.3217245.8076923-.7185629.8076923z"/><path d="m15.1913772 4.35787692h-4.150994c-.3968383 0-.7185628-.36152307-.7185628-.8076923 0-.44616924.3217245-.80769231.7185628-.80769231h4.150994c.3968384 0 .7185629.36152307.7185629.80769231 0 .44606153-.3217245.8076923-.7185629.8076923z"/><path d="m15.1913772 6.99493846h-4.150994c-.3968383 0-.7185628-.36152308-.7185628-.80769231s.3217245-.8076923.7185628-.8076923h4.150994c.3968384 0 .7185629.36152307.7185629.8076923s-.3217245.80769231-.7185629.80769231z"/></g><g transform="translate(31 13)"><path d="m18.2250591 0c.4262175 0 .7749409.37708034.7749409.83795632v25.32408738c0 .460876-.3487234.8379563-.7749409.8379563h-17.45011824c-.42621747 0-.77494086-.3770803-.77494086-.8379563v-25.32408738c0-.46087598.34872339-.83795632.77494086-.83795632z" fill="#445ea0"/><path d="m1.49163302 22c-.27039816 0-.49163302-.223992-.49163302-.4977601v-20.00447982c0-.27376804.22123486-.49776008.49163302-.49776008h15.01673398c.2703981 0 .491633.22399204.491633.49776008v20.00447982c0 .2737681-.2212349.4977601-.491633.4977601z" fill="#fff"/><path d="m3.39618388 21.5022399v-20.00447982c0-.27376804.27171726-.49776008.60381612-.49776008h-2.39618388c-.33209887 0-.60381612.22399204-.60381612.49776008v20.00447982c0 .2737681.27171725.4977601.60381612.4977601h2.39618388c-.33209886 0-.60381612-.223992-.60381612-.4977601z" fill="#d9eafc"/><path d="m8.52222957 25c-.28722626 0-.52222957-.1883633-.52222957-.4185852v-.1628296c0-.2302219.23500331-.4185852.52222957-.4185852h1.95554083c.2872263 0 .5222296.1883633.5222296.4185852v.1628296c0 .2302219-.2350033.4185852-.5222296.4185852z" fill="#293d7c"/><path d="m17 3v-1.48167729c0-.28507749-.2212349-.51832271-.491633-.51832271h-15.01673398c-.27039816 0-.49163302.23324522-.49163302.51832271v1.48167729z" fill="#ffaf10"/><path d="m4 1h-2.39618388c-.33209887 0-.60381612.23324522-.60381612.51832271v1.48167729h2.39618388v-1.48167729c0-.28507749.27171726-.51832271.60381612-.51832271z" fill="#ff9518"/><rect fill="#c3ddf4" height="5" rx="1" width="12" x="4" y="4"/></g></g></g><g fill="#5dc1d8"><rect height="1.5" rx=".75" width="12" x="47" y="40"/><rect height="1.5" rx=".75" width="12" x="47" y="42.25"/><rect height="1.5" rx=".75" width="12" x="47" y="44.5"/><rect height="1.5" rx=".75" width="12" x="47" y="46.75"/><rect height="1.5" rx=".75" width="12" x="47" y="49"/></g></g></svg>